<?xml version="1.0" encoding="utf-8"?>
<!-- Generator: Adobe Illustrator 19.0.0, SVG Export Plug-In . SVG Version: 6.00 Build 0)  -->
<svg version="1.1" id="Layer_1" xmlns="http://www.w3.org/2000/svg" xmlns:xlink="http://www.w3.org/1999/xlink" x="0px" y="0px"
	 viewBox="0 0 34 49" style="enable-background:new 0 0 34 49;" xml:space="preserve">
<style type="text/css">
	.st0{fill:#A45B31;}
</style>
<path class="st0" d="M5.6,47.8H1l7.4-15c0.7-1.4,2.4-2,3.9-1.3c1.4,0.7,2,2.4,1.3,3.9l-2.9,5.9c5-1.5,9.2-5.1,11.3-10.2
	c0.6-1.5,1.9-2.8,3.2-4.1c0.7-0.7,2-2.1,2.3-2.7c-0.3-0.5-1.3-1.5-1.9-2.1c-1.3-1.2-2.6-2.5-3.2-4.1c-0.1-0.3-0.2-0.5-0.3-0.8
	c-2.1-5.1-6.4-8.8-11.5-10.2l2.9,6.2c0.7,1.4,0,3.2-1.4,3.8c-1.4,0.7-3.2,0-3.8-1.4l-7-15.1h4.5c9.5,0,18,5.7,21.6,14.4
	c0.1,0.3,0.3,0.7,0.4,1c0.2,0.4,1.1,1.3,1.7,1.8c1.8,1.7,3.7,3.6,3.7,6.2c0,2.8-2.1,4.9-3.9,6.8c-0.7,0.7-1.7,1.7-1.9,2.2
	C23.6,42.2,15.1,47.8,5.6,47.8z"/>
</svg>
